<svg width="51" height="51" viewBox="0 0 51 51" fill="none" xmlns="http://www.w3.org/2000/svg">
<rect x="0.5" y="0.907959" width="50" height="50" rx="25" fill="#0F9A46"/>
<path d="M22.2951 29.7827L18.8251 26.3127C18.6381 26.1258 18.3845 26.0207 18.1201 26.0207C17.8556 26.0207 17.602 26.1258 17.4151 26.3127C17.2281 26.4997 17.123 26.7533 17.123 27.0177C17.123 27.1487 17.1488 27.2783 17.1989 27.3993C17.249 27.5203 17.3225 27.6302 17.4151 27.7227L21.5951 31.9027C21.9851 32.2927 22.6151 32.2927 23.0051 31.9027L33.5851 21.3227C33.772 21.1358 33.8771 20.8822 33.8771 20.6177C33.8771 20.3533 33.772 20.0997 33.5851 19.9127C33.3981 19.7258 33.1445 19.6207 32.8801 19.6207C32.6156 19.6207 32.362 19.7258 32.1751 19.9127L22.2951 29.7827Z" fill="white"/>
</svg>
